<?xml version="1.0" encoding="utf-8"?>
<svg xmlns="http://www.w3.org/2000/svg" id="svg2" viewBox="0 0 552 711.95" version="1.1">
  <path id="path3783" style="color: rgb(0, 0, 0); fill: rgb(104, 104, 104);" d="M 291.21 7.32 C 284.221 7.32 278.585 12.956 278.585 19.945 L 278.585 28.945 C 276.291 26.544 273.089 25.039 269.491 25.039 L 174.835 25.039 C 167.846 25.039 162.241 30.675 162.241 37.664 L 162.241 45.476 C 162.241 52.465 167.846 58.101 174.835 58.101 L 269.491 58.101 C 273.089 58.101 276.291 56.595 278.585 54.195 L 278.585 90.851 C 267.392 94.112 259.241 104.39 259.241 116.663 L 259.241 157.038 L 244.116 157.038 C 229.206 157.038 217.178 169.034 217.178 183.944 L 217.178 207.506 L 131.99 207.506 C 106.497 207.506 85.608 226.536 82.709 251.225 L 82.365 251.225 L 82.365 372.885 L 73.022 372.885 C 57.646 372.885 45.272 385.259 45.272 400.635 C 45.272 416.011 47.022 416.416 47.022 416.416 L 242.182 416.416 C 242.182 416.416 243.932 416.011 243.932 400.635 C 243.932 385.259 231.059 368.999 216.182 372.885 L 208.525 372.885 L 208.525 306.729 L 500.435 306.729 L 500.435 374.01 C 500.435 388.92 512.431 400.948 527.341 400.948 C 528.39 400.948 529.419 400.876 530.435 400.761 L 530.435 400.948 L 552.279 400.948 L 552.279 118.358 L 530.435 118.358 L 530.435 118.546 C 529.418 118.43 528.391 118.358 527.341 118.358 C 512.431 118.358 504.995 131.069 500.435 145.264 L 500.435 207.514 L 365.215 207.514 L 365.215 183.952 C 365.215 169.042 353.219 157.046 338.309 157.046 L 323.153 157.046 L 323.153 116.671 C 323.153 104.387 315.017 94.11 303.809 90.859 L 303.809 54.047 C 306.111 56.541 309.414 58.11 313.091 58.11 L 407.716 58.11 C 414.705 58.11 420.341 52.474 420.341 45.485 L 420.341 37.672 C 420.341 30.683 414.705 25.047 407.716 25.047 L 313.091 25.047 C 309.414 25.047 306.111 26.616 303.809 29.11 L 303.809 19.953 C 303.809 12.964 298.205 7.328 291.215 7.328 L 291.21 7.32 Z"/>
  <path id="rect2985" style="color: rgb(0, 0, 0); fill: rgb(42, 193, 254);" d="M 148.026 418.36 C 126.598 513.086 74.058 522.56 75.276 582.52 C 76.291 632.475 112.608 651.01 144.245 651.489 C 179.192 652.017 211.887 634.528 211.557 582.395 C 211.252 534.153 163.85 512.881 148.026 418.365 L 148.026 418.36 Z M 141.276 456.141 C 141.276 456.141 131.159 496.006 126.401 501.953 C 121.644 507.9 114.526 519.797 114.526 519.797 L 109.745 516.828 C 109.745 516.828 127.584 491.247 130.557 483.516 C 133.531 475.785 141.276 456.141 141.276 456.141 L 141.276 456.141 Z M 97.994 531.551 L 105.806 533.431 C 105.806 533.431 102.587 541.776 101.369 545.837 C 98.846 554.247 101.369 590.431 101.369 590.431 L 85.369 592.087 C 85.369 592.087 83.713 590.405 83.713 572.743 C 83.713 555.081 97.994 531.555 97.994 531.555 L 97.994 531.551 Z"/>
  <rect x="100.189" y="368.878" width="97.153" height="4.554" style="stroke: rgb(0, 0, 0); fill: rgb(213, 213, 213); paint-order: fill markers; stroke-opacity: 0;"/>
</svg>