<svg xmlns="http://www.w3.org/2000/svg" viewBox="0 0 64 64" width="64" height="64">
  <rect width="64" height="64" rx="14" fill="#0d1117"/>
  <!-- faucet body -->
  <path d="M14 24 h22 a4 4 0 0 1 4 4 v4 h6 a6 6 0 0 1 6 6 v3 a3 3 0 0 1-6 0 v-3 a0 0 0 0 0 0 0 h-6 v4 a4 4 0 0 1-4 4 h-4 v-4 h2 a2 2 0 0 0 2-2 v-12 h-16 a2 2 0 0 1-2-2 v-2 a2 2 0 0 1 2-2 z"
        fill="none" stroke="#2f81f7" stroke-width="3" stroke-linejoin="round" stroke-linecap="round"/>
  <!-- valve handle -->
  <line x1="22" y1="24" x2="22" y2="14" stroke="#2f81f7" stroke-width="3" stroke-linecap="round"/>
  <line x1="16" y1="14" x2="28" y2="14" stroke="#2f81f7" stroke-width="3" stroke-linecap="round"/>
  <!-- water drop -->
  <path d="M30 46 c0 4 6 4 6 0 c0-3-3-6-3-6 s-3 3-3 6 z" fill="#3fb950"/>
</svg>
