<?xml version="1.0" encoding="utf-8"?>
<svg version="1.1" id="Layer_1" xmlns="http://www.w3.org/2000/svg" viewBox="0 0 508 508">
  <circle style="fill: none;" cx="254" cy="254" r="254"/>
  <g style="" transform="matrix(1.736734, 0, 0, 1.736734, -186.592743, -180.778839)">
    <path style="fill: rgb(124, 142, 162); fill-rule: nonzero; stroke: rgb(255, 255, 255); paint-order: fill; stroke-width: 4.03055px; stroke-linejoin: bevel;" d="M192,160.8l172.4,12.4c16.4,1.2,30.4-12,30-28.4l0,0c-0.4-16.4-14.8-29.2-31.2-27.2L191.6,136 c-6.4,0.8-11.2,6-11.2,12.8l0,0C180.4,155.2,185.6,160.4,192,160.8z"/>
    <rect x="127.6" y="170" style="fill: rgb(124, 142, 162); fill-rule: nonzero; stroke: rgb(255, 255, 255); paint-order: fill; stroke-width: 4.03055px; stroke-linejoin: bevel;" width="69.2" height="38"/>
  </g>
  <g style="" transform="matrix(1.736734, 0, 0, 1.736734, -186.592743, -180.778839)">
    <path style="fill: rgb(90, 104, 122); fill-rule: nonzero; stroke: rgb(255, 255, 255); paint-order: fill; stroke-width: 4.03055px; stroke-linejoin: bevel;" d="M125.2,177.2l2.8-50c0.4-6.4,5.6-11.2,12-11.2h45.2c6.4,0,11.6,4.8,12,11.2l2.8,50H125.2z"/>
    <path style="fill: rgb(90, 104, 122); fill-rule: nonzero; stroke: rgb(255, 255, 255); paint-order: fill; stroke-width: 4.03055px; stroke-linejoin: bevel;" d="M113.6,392l10.8-198h76l1.6,30.4c0.4,6,5.6,10.4,11.6,10l62-5.6c26.4-2.4,49.6,16.8,52.4,43.2 l1.6,16l-37.6,3.6l-1.6-16c-0.4-5.6-5.6-9.6-11.2-9.2l-64.4,6c-5.6,0.4-10,5.6-9.6,11.2l6,108.8h-97.6V392z"/>
  </g>
  <path style="fill: rgb(42, 193, 255); fill-rule: nonzero; stroke: rgb(255, 255, 255); paint-order: fill; stroke-width: 7px; stroke-linejoin: bevel;" d="M 312.197 426.383 C 312.197 462.507 330.259 474.316 353.184 474.316 C 376.109 474.316 394.171 463.201 394.171 426.383 C 394.171 390.259 353.184 342.325 353.184 342.325 C 353.184 342.325 312.197 390.259 312.197 426.383 Z"/>
</svg>